<?xml version="1.0" encoding="utf-8"?>
<!-- Generator: Adobe Illustrator 17.0.0, SVG Export Plug-In . SVG Version: 6.00 Build 0)  -->
<!DOCTYPE svg PUBLIC "-//W3C//DTD SVG 1.1//EN" "http://www.w3.org/Graphics/SVG/1.1/DTD/svg11.dtd">
<svg version="1.1" id="Layer_1" xmlns="http://www.w3.org/2000/svg" xmlns:xlink="http://www.w3.org/1999/xlink" x="0px" y="0px"
	 width="2000px" height="2000px" viewBox="0 0 2000 2000"  xml:space="preserve">
<g fill="#FFFFFF">
	<g>
		<path d="M1324.315,1104.72h409.859c4.729,0,8.563-3.834,8.563-8.563c0-4.73-3.834-8.563-8.563-8.563h-409.859
			c-4.733,0-8.563,3.833-8.563,8.563C1315.753,1100.886,1319.583,1104.72,1324.315,1104.72"/>
		<path d="M1224.814,1104.72h99.501c4.729,0,8.563-3.834,8.563-8.563c0-4.73-3.834-8.563-8.563-8.563h-99.501
			c-4.733,0-8.563,3.833-8.563,8.563C1216.251,1100.886,1220.081,1104.72,1224.814,1104.72"/>
		<path d="M320.257,1104.72h840.593c4.729,0,8.563-3.834,8.563-8.563c0-4.73-3.834-8.563-8.563-8.563H320.257
			c-4.733,0-8.563,3.833-8.563,8.563C311.695,1100.886,315.524,1104.72,320.257,1104.72"/>
		<path d="M710.721,1176.226h814.094c4.729,0,8.563-3.834,8.563-8.563c0-4.73-3.834-8.563-8.563-8.563H710.721
			c-4.733,0-8.563,3.833-8.563,8.563C702.158,1172.392,705.988,1176.226,710.721,1176.226"/>
		<path d="M265.826,1176.226h290.912c4.729,0,8.563-3.834,8.563-8.563c0-4.73-3.834-8.563-8.563-8.563H265.826
			c-4.733,0-8.563,3.833-8.563,8.563C257.263,1172.392,261.093,1176.226,265.826,1176.226"/>
		<path d="M1563.597,1247.732h138.748c4.729,0,8.563-3.834,8.563-8.563c0-4.73-3.834-8.563-8.563-8.563h-138.748
			c-4.733,0-8.563,3.833-8.563,8.563C1555.035,1243.898,1558.865,1247.732,1563.597,1247.732"/>
		<path d="M1070.831,1247.732h414.596c4.729,0,8.563-3.834,8.563-8.563c0-4.73-3.834-8.563-8.563-8.563h-414.596
			c-4.733,0-8.563,3.833-8.563,8.563C1062.268,1243.898,1066.098,1247.732,1070.831,1247.732"/>
		<path d="M722.569,1247.732h291.401c4.729,0,8.563-3.834,8.563-8.563c0-4.73-3.834-8.563-8.563-8.563H722.569
			c-4.733,0-8.563,3.833-8.563,8.563C714.007,1243.898,717.837,1247.732,722.569,1247.732"/>
		<path d="M376.072,1247.732h280.159c4.729,0,8.563-3.834,8.563-8.563c0-4.73-3.834-8.563-8.563-8.563H376.072
			c-4.733,0-8.563,3.833-8.563,8.563C367.51,1243.898,371.339,1247.732,376.072,1247.732"/>
		<circle cx="1175.989" cy="609.115" r="15.754"/>
		<path d="M1469.598,992.965c-24.362,14.712-63.458,23.77-103.172,23.709c-33.259,0.023-66.978-6.245-93.163-19.527
			c-4.223-2.134-9.374-0.443-11.506,3.777c-2.132,4.22-0.443,9.369,3.78,11.504c29.492,14.888,65.527,21.347,100.89,21.37
			c42.277-0.061,83.547-9.173,111.981-26.151c4.051-2.432,5.368-7.69,2.935-11.743c-2.429-4.054-7.689-5.37-11.74-2.938
			L1469.598,992.965z"/>
		<path d="M1272.903,921.773c1.087,9.196,0.715,15.365,2.839,22.888c1.915,6.471,2.91,12.732,2.91,18.624
			c-0.05,10.63-3.065,19.977-10.264,28.518c-13.659,15.931-18.254,34.045-18.162,52.46c-0.004,2.479,0.071,5.003,0.226,7.571v-0.05
			c0.276,4.975,0.364,10.022,0.364,15.21c0,8.39-0.23,17.145-0.23,26.506h8.563v-8.563c-11.309-0.001-20.349-0.001-32.808,0v8.563
			l7.308,4.457c7.212-11.762,10.026-23.658,9.992-34.838c-0.159-22.639-10.381-42.045-15.202-60.103
			c-2.772-10.008-7.078-18.3-13.517-24.288c-6.397-6.016-14.955-9.153-23.911-9.086c-6.811,0.006-13.893,1.617-21.302,4.544
			c-22.949,9.055-45.321,14.021-67.129,14.02c-25.286-0.024-49.903-6.582-74.533-21.725c-5.046-3.086-10.139-7.434-16.226-11.964
			l-5.097,6.881h8.558c0-6.501,0-12.659,0-20.992h-8.558l2.429,8.21c20.047-5.895,35.35-15.966,45.547-30.03
			c10.222-14.048,15.147-31.474,16.464-51.464c1.225-17.851,7.588-31.823,17.656-43.794c10.076-11.932,24.069-21.698,40.183-29.764
			c47.625-23.86,98.197-38.72,150.969-44.54c18.112-1.996,36.119-3.02,54.009-3.021c52.567,0.004,104.109,8.814,154.376,27.766
			c4.921,1.855,9.896,4.089,15.01,6.401c26.474,11.965,45.973,26.743,58.767,43.539c12.785,16.826,19.119,35.638,19.157,56.969
			c0.004,20.31-5.92,43-18.367,67.662c-1.63,3.225-3.282,6.307-5.059,9.118c-8.851,13.977-14.077,28.693-14.073,43.916
			c-0.025,13.963,4.457,28.032,13.484,41.598l7.137-4.732l-8.261-2.261c-5.051,18.454-10.114,36.975-15.21,55.595l8.261,2.261
			v-8.563c-11.301-0.001-21.068-0.001-35.003,0v8.563l8.006,3.031c3.683-9.924,5.452-17.234,8.303-21.723
			c3.947-6.465,6.234-12.924,6.238-19.473c0.029-5.888-1.973-11.453-5.105-16.065c-3.136-4.653-7.279-8.571-12.087-12.314
			c-18.229-14.112-36.524-28.044-50.025-44.546c-8.705-10.314-12.643-27.806-19.705-44.771c-1.856-4.348-6.886-6.37-11.234-4.513
			c-4.348,1.855-6.368,6.884-4.511,11.232c6.422,14.658,9.984,33.701,22.209,48.911c15.306,18.629,34.681,33.162,52.767,47.217
			c3.947,3.05,6.744,5.891,8.362,8.322c1.618,2.472,2.178,4.317,2.208,6.526c0.004,2.446-0.861,5.83-3.738,10.555
			c-4.825,8.092-6.384,16.012-9.7,24.578c-0.995,2.625-0.631,5.591,0.966,7.899c1.593,2.309,4.24,3.695,7.045,3.695
			c13.939,0,23.702,0,35.003,0c3.851,0,7.237-2.587,8.257-6.302c5.096-18.622,10.16-37.142,15.21-55.595
			c0.652-2.39,0.243-4.929-1.125-6.993c-7.48-11.327-10.607-21.798-10.632-32.133c0.004-11.242,3.817-22.71,11.431-34.769
			c2.22-3.523,4.114-7.085,5.866-10.539c13.354-26.464,20.198-51.727,20.202-75.387c0.038-24.811-7.676-47.756-22.656-67.351
			c-14.972-19.625-36.951-35.931-65.335-48.761c-5.13-2.318-10.431-4.711-16.021-6.82c-52.249-19.708-105.94-28.871-160.417-28.867
			c-18.547-0.001-37.181,1.06-55.886,3.123c-54.745,6.033-107.341,21.485-156.763,46.252c-17.459,8.757-33.435,19.66-45.589,34.017
			c-12.158,14.319-20.282,32.259-21.666,53.717c-1.196,17.944-5.485,31.897-13.22,42.519c-7.76,10.604-19.149,18.491-36.566,23.687
			c-3.646,1.08-6.129,4.41-6.129,8.211c-0.004,8.335-0.004,14.49,0,20.992c0,2.718,1.275,5.26,3.462,6.88
			c5.452,4.018,10.845,8.703,17.443,12.784c27.101,16.723,55.213,24.292,83.514,24.268c24.429-0.001,48.933-5.556,73.421-15.216
			c5.92-2.349,10.962-3.353,15.01-3.347c5.36,0.067,8.905,1.487,12.271,4.523c3.328,3.061,6.451,8.313,8.65,16.283
			c5.745,20.306,14.746,38.521,14.587,55.548c-0.033,8.458-1.911,16.704-7.492,25.924c-1.61,2.635-1.668,5.959-0.155,8.65
			c1.509,2.692,4.377,4.369,7.467,4.369c12.459,0,21.494,0,32.808,0c2.287,0,4.436-0.891,6.054-2.509
			c1.618-1.618,2.504-3.767,2.504-6.053c0-9.076,0.23-17.808,0.23-26.506c0-5.378-0.088-10.744-0.389-16.16v-0.05
			c-0.138-2.199-0.197-4.37-0.201-6.52c0.092-15.932,3.407-28.674,14.094-41.37c9.921-11.621,14.382-25.559,14.332-39.608
			c0-7.812-1.304-15.687-3.612-23.483c-1.162-3.583-1.15-9.61-2.237-19.926c-0.527-4.699-4.762-8.084-9.457-7.559
			c-4.699,0.524-8.086,4.758-7.559,9.457L1272.903,921.773z"/>
		<g>
			<path d="M1675.515,856.428c-3.691-0.04-7.32,3.594-7.721,7.713c-0.174,1.782-0.224,3.594-0.599,5.334
				c-1.988,9.237-11.234,16.209-19.83,14.655c0.693-1.565,1.348-3.047,2.004-4.528c6.692-15.104,1.387-33.334-12.364-42.403
				c-3.24-2.137-6.528-2.135-9.633,0.239c-14.319,10.946-17.584,31.519-8.642,44.623c0.604,0.885,0.867,2.003,1.32,3.087
				c-9.663,1.888-20.158-6.142-21.624-16.057c-0.613-4.15-1.364-8.284-2.206-12.394c-0.259-1.266-0.543-2.524-0.838-3.777
				c-0.073,0.188-0.146,0.375-0.219,0.561c-2.541,6.465-5.158,12.261-5.643,19.282c-0.801,11.598-0.612,26.371,5.274,37.315
				c0.833-3.177,1.551-6.397,2.132-9.667c0.324-1.823,0.656-3.644,1.005-5.58c11.821,5.791,20.675,7.874,35.024,2.101
				c0.806-0.324,1.994-0.174,2.846,0.16c12.634,4.961,29.944,1.927,39.793-10.883c5.105-6.64,7.283-14.008,7.115-22.158
				C1682.622,859.783,1679.216,856.469,1675.515,856.428z M1633.284,876.858c-5.421-5.503-5.828-16.049-0.879-22.739
				C1638.626,858.792,1639.114,871.416,1633.284,876.858z"/>
		</g>
		<path d="M1110.487,903.076c0,8.701-7.053,15.756-15.758,15.756c-8.7,0-15.754-7.054-15.754-15.756
			c0-8.702,7.053-15.755,15.754-15.755C1103.434,887.321,1110.487,894.374,1110.487,903.076z"/>
		<path d="M1153.973,848.582l9.06,35.642l8.299-2.109l-2.074-8.31l-0.151,0.036c-1.062,0.249-6.945,1.479-14.111,1.472
			c-5.778,0.013-12.325-0.818-17.827-3.176c-5.527-2.41-9.992-5.94-13.161-12.366c-2.07-4.254-7.191-6.028-11.443-3.961
			c-4.252,2.065-6.029,7.187-3.959,11.441c5.013,10.437,13.362,17.089,21.862,20.646c8.533,3.608,17.238,4.528,24.529,4.54
			c10.339-0.01,17.97-1.915,18.404-2.013c2.216-0.553,4.106-1.953,5.28-3.917c1.171-1.963,1.505-4.285,0.945-6.501l-9.06-35.642
			c-1.167-4.581-5.828-7.351-10.406-6.185c-4.582,1.165-7.35,5.824-6.184,10.405L1153.973,848.582z"/>
		<path d="M1294.547,646.824c-4.285-3.818-7.555-6.942-11.31-10.053c-21.749-17.98-43.865-35.098-64.428-53.506
			c-14.415-12.884-29.709-25.599-50.246-32.226c-9.675-3.25-15.738-9.053-19.182-19.067c-1.451-4.224-3.169-6.762-5.23-11.087
			c-1.409-2.899-4.332-4.766-7.555-4.822c-3.224-0.056-6.213,1.706-7.718,4.556c-5.61,10.628-9.398,18.801-13.788,25.855
			c-1.697,2.745-3.269,4.415-4.319,5.181l-1.923,0.808c-0.711,0.082-3.362-0.64-7.392-4.372c-3.387-3.071-6.706-7.514-10.925-12.211
			c-3.784-4.172-7.58-8.195-12.405-13.403c-2.136-2.305-5.402-3.259-8.441-2.467c-3.04,0.791-5.427,3.216-6.163,6.27
			c-1.605,6.632-1.99,12.977-1.99,18.925c0.004,6.725,0.477,12.97,0.472,18.819c0,4.024-0.25,7.83-0.876,11.558
			c-4.882,0-9.521,0-14.137,0.001c-203.548-0.002-407.083,0.002-610.622-0.022c-10.222,0-20.474-0.179-30.759-0.418v0.002
			l-0.84-0.013c-5.824-0.02-11.502,1.5-16.13,4.786c-4.641,3.262-7.94,8.092-9.808,13.508c-2.45,7.092-5.214,15.212-5.435,24.206
			c-0.063,2.642-0.088,5.306-0.088,7.957c0,11.996,0.581,24.051,1.84,36.009c4.148,39.472,9.353,78.672,13.362,117.832
			c0.903,8.929,1.371,17.803,1.376,26.608c-0.004,29.356-5.117,58.02-15.75,86.081c-2.091,5.517-3.152,11.528-3.161,17.488
			c0,1.577,0.08,3.139,0.243,4.673c4.11,39.956,8.73,79.835,13.287,119.68c2.274,19.876,4.775,39.675,7.258,60.247
			c0.518,4.311,4.16,7.536,8.504,7.536h25.926c2.287,0,4.436-0.89,6.054-2.508c1.618-1.618,2.504-3.767,2.504-6.053V953.017
			c0.659-0.288,1.269-0.546,1.769-0.733l0.38-0.123c0.26,0.461,0.547,0.986,0.882,1.662c1.576,3.124,2.814,7.251,4.47,11.914
			c13.927,38.805,27.82,77.641,41.792,116.455c2.04,5.666,4.365,10.943,6.255,15.661c1.3,3.238,4.457,5.37,7.948,5.37h35.295
			c2.567,0,5.017-1.165,6.639-3.157c1.622-1.993,2.262-4.627,1.743-7.143c-0.878-4.235-1.401-6.986-2.061-9.905
			c-9.018-39.683-18.082-79.332-27.017-118.997c-1.158-4.784-2.275-8.297-2.207-10.57c0.03-0.815,0.093-1.478,0.302-2.175
			c0.561-0.114,0.958-0.182,1.142-0.175c9.461,3.33,19.05,4.66,28.408,4.657c7.258,0,14.391-0.775,21.327-1.984
			c6.697-1.181,13.448-2.501,20.17-3.98c-5.29-3.95-9.316-9.114-12.138-14.908c-3.619,0.702-7.273,1.377-10.98,2.018
			c-6.192,1.081-12.346,1.73-18.379,1.73c-7.935-0.003-15.649-1.112-23.158-3.816c-1.89-0.673-3.633-0.851-5.113-0.852
			c-4.285,0.104-7.237,1.178-7.664,1.099c-2.404,0.243-4.612,1.502-6.041,3.45c-3.575,4.763-5.059,10.276-4.996,14.938
			c0.067,6.288,1.936,10.999,2.63,14.353c8.885,39.446,17.895,78.87,26.852,118.294c-6.34,0-12.589,0-19.016,0
			c-1.349-3.263-2.681-6.515-3.831-9.709c-13.964-38.791-27.849-77.621-41.784-116.444c-1.447-3.967-2.785-8.748-5.264-13.769
			c-1.321-2.569-2.504-4.909-4.779-7.314c-2.157-2.453-6.397-4.434-10.001-4.277c-5.949,0.23-9.775,2.435-15.938,5.335
			c-2.914,1.444-4.758,4.423-4.758,7.673c-0.004,44.819-0.004,90.499-0.001,137.027h-9.781c-2.184-17.922-4.352-35.291-6.332-52.605
			c-4.557-39.86-9.169-79.675-13.266-119.503l-0.155-2.904c-0.008-3.837,0.753-8.046,2.044-11.402
			c11.38-29.996,16.87-60.816,16.866-92.166c0-9.412-0.498-18.863-1.459-28.345c-4.051-39.508-9.256-78.724-13.371-117.886
			c-1.191-11.315-1.748-22.776-1.748-34.219c0-2.542,0.025-5.067,0.088-7.572c0.08-5.507,2.074-12.15,4.482-18.944
			c0.978-2.749,2.17-4.196,3.525-5.17c1.367-0.951,3.194-1.628,6.246-1.649l0.326,0.004l0.117,0.003
			c10.352,0.241,20.737,0.422,31.152,0.423c203.539,0.024,407.079,0.02,610.622,0.022c6.715-0.001,13.425-0.001,20.938-0.001
			c3.746,0,7.049-2.432,8.169-6.009c2.492-7.972,3.031-15.609,3.031-22.674c-0.003-5.529-0.28-10.673-0.391-15.618
			c3.204,3.633,6.566,8.066,11.148,12.305c5.582,5.077,11.627,8.793,18.964,8.875c4.42,0.033,8.759-1.624,12.15-4.195
			c3.437-2.574,6.167-5.922,8.638-9.882c2.296-3.709,4.324-7.453,6.351-11.337c5.649,11.236,15.356,19.43,27.331,23.167
			c16.656,5.34,29.96,16.029,44.075,28.683c21.172,18.95,43.473,36.195,64.929,53.944c1.714,1.415,3.478,2.992,5.444,4.773
			c-5.195,8.256-10.347,16.443-15.792,25.092c-10.106-2.159-19.283-3.954-27.853-6.408c-6.974-1.986-14.069-3.439-21.44-3.444
			c-9.399-0.048-19.232,2.568-28.343,8.93c-5.276,3.61-10.904,4.878-17.668,4.907c-5.398,0.006-11.355-0.909-17.527-2.099
			c-4.444-0.853-9.051-2.244-13.726-3.853c-3.963-1.361-7.923-2.104-11.828-2.104c-5.436-0.022-10.724,1.513-15.181,4.324
			c-4.478,2.802-8.123,6.723-11.104,11.311c-4.867,7.473-9.24,15.166-13.379,22.836c-24.768,45.915-49.305,91.914-74.14,137.72
			c-8.048,14.833-16.456,27.448-31.298,36.271c-2.563,1.52-4.151,4.273-4.189,7.25c-0.814,61.7-1.633,123.799-2.458,186.644
			c-9.806-35.675-19.555-71.144-29.124-105.95c-0.928-3.364-3.83-5.849-7.296-6.239c-4.152-0.46-7.296-0.849-10.419-0.861
			c-0.386,0.002-0.8,0.056-1.195,0.072c-0.001,0.111-0.024,0.219-0.025,0.331c0.287,4.723-0.195,9.53-1.664,14.253
			c-4.539,14.605-11.846,28.139-18.046,42.064c-1.828,4.105-4.979,7.792-8.718,10.943c-1.328,8.855-2.19,17.853-2.194,27.075
			c0,2.537,0.05,5.122,0.196,7.757l-0.004-0.05c0.112,2.252,0.134,4.591,0.142,6.994c-2.173-11.292-4.293-22.344-6.274-33.353
			c-3.432,4.934-8.002,9.284-13.813,12.688c-0.378,0.221-0.784,0.393-1.169,0.602c2.416,12.947,4.97,25.93,7.502,39.306
			c0.849,4.495,5.055,7.513,9.587,6.888c5.636-0.78,9.286-1.284,13.805-1.909c4.248-0.588,7.388-4.194,7.388-8.481
			c0-5.141,0.113-10.017,0.113-14.896c0-2.856-0.034-5.735-0.176-8.677l-0.004-0.05c-0.121-2.249-0.171-4.52-0.171-6.819
			c-0.013-24.444,6.271-48.449,13.517-72.987c0.603-2.069,1.092-3.639,1.464-4.618c0.619,0.006,1.461,0.058,2.495,0.147
			c10.02,36.447,20.22,73.559,30.48,110.883c1.02,3.715,4.402,6.292,8.257,6.292h13.743c4.674,0,8.495-3.775,8.558-8.45
			c0.862-65.672,1.716-130.463,2.566-194.848c16.207-10.982,25.74-25.801,33.482-40.111c24.868-45.872,49.414-91.883,74.157-137.749
			c4.014-7.442,8.161-14.723,12.66-21.626c1.956-3.008,3.942-4.959,5.824-6.129c1.902-1.162,3.696-1.701,6.109-1.724
			c1.727,0,3.796,0.329,6.267,1.177c5.055,1.735,10.406,3.383,16.055,4.472c6.53,1.249,13.5,2.4,20.758,2.406
			c8.984,0.029,18.688-1.903,27.401-7.942c6.439-4.395,12.116-5.847,18.61-5.895c5.059-0.005,10.624,1.036,16.736,2.787
			c11.401,3.249,22.677,5.221,34.735,7.933c3.529,0.793,7.191-0.731,9.123-3.793c8.053-12.793,15.24-24.218,22.82-36.257
			C1298.323,654.232,1297.67,649.61,1294.547,646.824z"/>
		<path d="M405.305,575.143c-25.391,0.352-50.631,5.265-70.427,17.439c-9.875,6.095-18.367,14.12-24.32,24.267
			c-5.97,10.133-9.282,22.296-9.265,36.084c-0.004,4.932,0.406,10.101,1.271,15.502c3.441,21.774,6.1,55.798,6.096,89.396
			c0.013,27.969-1.869,55.803-6.376,75.848c-2.212,10.001-5.172,18.026-8.245,22.767c-1.518,2.383-3.002,3.893-4.173,4.684
			l-3.094,1.031l-0.539-0.023c-4.716-0.368-8.838,3.157-9.202,7.873c-0.368,4.715,3.157,8.834,7.873,9.202l1.869,0.072
			c4.637,0.026,9.139-1.511,12.756-4.018c6.372-4.44,10.423-11.094,13.713-18.921c4.854-11.793,7.848-26.859,9.804-43.85
			c1.936-16.971,2.734-35.804,2.734-54.664c-0.004-34.523-2.672-69.024-6.301-92.088c-0.736-4.567-1.062-8.82-1.066-12.81
			c0.017-11.119,2.567-19.989,6.907-27.411c6.505-11.082,17.451-19.259,31.587-24.808c14.09-5.532,31.156-8.24,48.611-8.447
			c4.724-0.059,8.512-3.938,8.454-8.666c-0.059-4.729-3.938-8.516-8.663-8.457L405.305,575.143z"/>
		<path d="M797.303,957.691h-0.004v0.329c0.104,7.5-3.892,23.656-8.692,37.797c-2.387,7.135-4.946,13.931-7.187,19.294
			c-2.161,5.269-4.365,9.514-4.804,10.028c-16.941,23.611-42.294,32.924-70.904,33.032c-5.431,0-10.95-0.354-16.494-1.023
			c-21.49-2.61-40.325-12.596-56.936-26.834c-16.577-14.216-30.721-32.645-42.29-51.301c-3.47-5.525-7.609-12.302-15.189-17.229
			l-4.632,7.2l7.011-4.913l-0.924-1.319l-7.011,4.913l2.408,8.216c2.751-0.815,4.992-1.578,6.832-1.992
			c4.306-0.978,8.37-3.077,11.326-6.475c2.981-3.37,4.511-7.9,4.469-12.269l-0.18-2.86l-8.5,1.022l8.558-0.046l-0.008-1.566
			l-0.874-3.728c-0.832-1.69-1.656-3.372-2.968-6.049l-3.257-3.556c-6.986-4.221-14.767-8.924-22.966-13.88l-4.428,7.329
			l2.283,8.251c4.114-1.16,7.371-2.304,9.959-2.734c6.108-1.091,11.343-2.244,16.017-2.221l0.966,0.017l0.117,0.004l0.468,0.005
			c5.623-0.187,8.834-2.215,10.089-2.377c1.764-0.48,3.303-1.492,4.448-2.92c1.305-1.636,2.467-3.094,3.491-4.376l1.614-3.253
			c0.456-1.825,0.87-3.464,1.363-5.422l-0.1-4.56l-1.217-4.043l-0.514-1.308c-0.874-1.761-2.036-3.851-3.968-5.849
			c-1.911-2.004-4.612-3.7-7.555-4.601c-6.296-1.973-11.932-5.981-17.878-11.353c-8.893-8.023-16.197-17.276-22.506-27.645
			c-2.5-4.117-4.586-8.481-6.368-13.377l-8.044,2.925l-5.431,6.622l2.718,2.227l0.477,0.363l3.315,2.351l4.954-6.984l-6.012,6.099
			c7.509,7.387,15.921,12.936,24.044,17.943c8.642,5.312,17.556,9.803,26.269,14.12c15.089,7.469,30.822,12.983,46.847,17.232
			c9.273,2.457,18.71,5.049,28.43,7.161c6.459,1.391,12.597,1.784,18.149,2.379c7.919,0.823,15.315,1.047,21.962,2.144
			c6.263,1.019,12.38,1.307,18.304,1.307c6.213-0.001,12.212-0.318,18.003-0.507c9.967-0.344,19.383-3.078,28.087-6.688
			c13.442-5.577,23.982-14.604,32.753-24.725c4.729-5.458,8.333-11.482,11.443-17.248c8.579-15.93,14.859-32.524,20.612-49.053
			c4.386-12.621,8.705-24.975,14.157-36.617c4.457-9.503,10.214-17.461,17.819-24.33c3.052-2.756,6.99-4.538,11.418-5.441
			c4.754-0.969,9.357-1.481,13.784-1.481c9.859,0.032,18.751,2.417,27.326,8.311c5.732,4.005,9.277,7.98,10.532,13.296
			c0.619,2.602,1.049,5.677,1.702,9.129c0.439,2.29,0.907,4.468,1.371,6.746c0.389,1.903,1.434,3.641,2.935,4.879
			c2.847,2.353,5.615,4.575,8.207,6.795c2.96,2.648,4.394,4.698,5.356,9.083l8.399-1.669l3.161-7.958
			c-6.89-2.732-13.329-2.899-18.572-2.906l-3.834,0.011l-2.354-0.022l-0.832-0.009c-4.118-0.009-8.312,0.747-12.162,2.623
			c-3.859,1.861-7.187,4.778-9.829,8.325c-2.513,3.412-6.271,7.249-9.428,12.924c-3.984,7.248-6.982,14.972-8.7,23.171
			c-1.2,5.736-1.756,11.357-2.22,16.696l-0.054,1.155c0.021,2.338,0.493,3.859,0.694,4.779l0.209,0.891l0.008,0.056l2.132-0.231
			l-2.141,0.001l0.008,0.23l2.132-0.231l-2.141,0.001h7.634l-7.634-0.189v0.189h7.634l-7.634-0.189
			c0.008,0.103-0.109,1.581,0.585,3.375l7.986-3.091l-8.563-0.19l-0.017,1.317c0.013,11.458,2.601,21.867,4.975,31.634
			c3.044,12.462,5.995,24.91,8.667,37.371c0.623,2.286,0.138,6.726,1.271,12.727c0.694,3.279,0.916,6.793,0.916,10.609
			c0,3.163-0.163,6.536-0.247,10.113c-0.418,15.486-4.026,29.965-11.334,43.558c-6.405,11.899-15.315,22.061-25.826,30.936
			c-12.71,10.73-26.825,19.133-42.47,24.559c-8.797,3.054-17.204,6.249-25.499,8.59c-5.239,1.518-11.748,2.065-18.973,3.6
			c-9.495,2.087-19.868,1.819-31.106,1.867h0.059h-0.372c-4.862,0.002-9.867-0.743-15.214-1.818
			c-4.641-0.929-9.152,2.078-10.08,6.716c-0.928,4.637,2.078,9.148,6.719,10.077c5.828,1.163,11.978,2.147,18.576,2.149h0.372h0.054
			c10.762-0.092,22.389,0.379,34.626-2.256c5.703-1.273,12.564-1.789,20.001-3.857c9.265-2.625,17.974-5.956,26.444-8.887
			c17.827-6.176,33.798-15.735,47.913-27.655c11.782-9.943,22.23-21.733,29.856-35.904c8.638-16.025,12.915-33.345,13.375-51.252
			c0.075-3.313,0.247-6.818,0.247-10.536c0-4.444-0.238-9.192-1.284-14.149c-0.623-2.309-0.13-6.76-1.279-12.769
			c-2.722-12.712-5.715-25.316-8.776-37.855c-2.4-9.749-4.503-18.789-4.49-27.568l0.017-0.938l-0.577-3.281l-7.848,3.039l8.412-0.28
			l-0.564-2.758l-7.848,3.039l8.412-0.28l-8.149,0.271l8.153,0.203l-0.004-0.474l-8.149,0.271l8.153,0.203v-0.235
			c-0.021-2.333-0.489-3.87-0.694-4.798l-0.209-0.896l-0.008-0.049l-2.27,0.247h2.279l-0.008-0.247l-2.27,0.247h2.279h-5.418
			l5.41,0.363l0.008-0.363h-5.418l5.41,0.363v-0.02c0.443-5.186,0.966-10.126,1.923-14.681c1.342-6.399,3.688-12.497,6.953-18.444
			c1.693-3.171,4.708-6.425,8.111-10.886c1.35-1.784,2.458-2.627,3.608-3.196c1.158-0.554,2.538-0.897,4.687-0.906l0.456,0.006
			l2.73,0.025l3.834-0.011c4.837-0.006,8.617,0.251,12.246,1.697c2.918,1.16,6.23,0.632,8.642-1.379
			c2.412-2.01,3.529-5.17,2.918-8.249c-1.497-7.98-5.791-14.404-11.021-18.758c-2.864-2.45-5.707-4.731-8.429-6.981l-5.452,6.601
			l8.387-1.721c-0.489-2.37-0.941-4.485-1.33-6.52c-0.552-2.857-0.999-6.176-1.852-9.832c-2.592-11.047-10.109-18.415-17.459-23.461
			c-11.506-7.989-24.329-11.383-37.068-11.35c-5.745,0-11.493,0.661-17.204,1.825c-6.773,1.377-13.68,4.296-19.462,9.502
			c-9.357,8.427-16.561,18.437-21.862,29.79c-5.945,12.703-10.431,25.629-14.826,38.25c-5.644,16.229-11.64,31.945-19.512,46.558
			c-2.822,5.251-5.866,10.203-9.298,14.146c-7.685,8.847-16.101,15.86-26.39,20.132c-7.475,3.112-14.959,5.156-22.092,5.389
			c-6,0.2-11.815,0.5-17.43,0.499c-5.368,0-10.54-0.269-15.549-1.085c-8.161-1.316-15.883-1.516-22.924-2.271
			c-5.97-0.62-11.489-1.027-16.31-2.084c-9.119-1.978-18.304-4.495-27.678-6.979c-15.164-4.019-29.793-9.171-43.636-16.025
			c-8.629-4.271-17.066-8.547-24.893-13.36c-7.785-4.781-15.043-9.676-20.997-15.555l-1.058-0.885l-3.065-2.171l-2.492-2.044
			c-2.981-2.443-7.233-2.592-10.377-0.365c-3.144,2.227-4.415,6.289-3.098,9.911c2.132,5.874,4.72,11.315,7.831,16.426
			c7.003,11.525,15.361,22.171,25.667,31.464c6.698,6.034,14.357,11.858,24.199,14.971l0.414,0.194l0.882,1.472l7.689-3.774
			l-8.203,2.467l1.217,4.043l8.203-2.467l-8.303-2.094c-0.493,1.956-0.907,3.599-1.371,5.432l8.307,2.088l-6.694-5.341
			c-1.024,1.285-2.187,2.741-3.491,4.372l6.694,5.343l-2.245-8.264c-1.923,0.533-3.307,1.108-4.298,1.424l-1.095,0.314l-0.226,0.04
			l0.017,0.14v-0.138l-0.017-0.002l0.017,0.14v-0.138l-0.021-0.001l-0.222,8.56l0.339-8.556l-1.647-0.029
			c-7.262,0.023-13.492,1.544-18.965,2.476c-4.595,0.824-8.303,2.212-11.581,3.1c-3.29,0.91-5.732,3.705-6.196,7.083
			c-0.468,3.378,1.129,6.731,4.051,8.497c8.199,4.953,15.979,9.657,22.966,13.88l4.432-7.328l-7.689,3.772
			c1.313,2.673,2.136,4.352,2.968,6.051l7.689-3.773l-8.563,0.045l0.008,1.566l0.059,0.976l0.063,0.816l-0.259,1.019
			c-0.142,0.162-0.656,0.659-2.249,1.034c-3.052,0.709-5.586,1.603-7.818,2.249c-2.638,0.773-4.762,2.791-5.669,5.384
			c-0.911,2.593-0.51,5.494,1.066,7.745l0.924,1.319l2.379,2.287c3.65,2.305,6.552,6.392,9.905,11.86
			c12.204,19.648,27.251,39.425,45.693,55.265c18.409,15.818,40.425,27.74,66.029,30.841c6.175,0.746,12.38,1.147,18.551,1.147
			c32.218,0.109,64.21-11.228,84.843-40.209c2.237-3.24,4.147-7.453,6.664-13.371c3.65-8.733,7.856-20.397,11.222-31.939
			c3.341-11.615,5.924-22.749,5.979-31.756l0.004-0.329c0-4.728-3.834-8.558-8.558-8.558c-4.729,0-8.558,3.831-8.558,8.558H797.303z
			"/>
		<path d="M884.417,787.443c0.811,11.5,6.84,16.911,17.51,17.69c4.365-1.032,8.922-2.306,12.15-6.278
			c3.261-4.015,3.788-8.711,3.32-13.54c-0.539-5.596-7.601-12.614-13.195-13.222c-4.122-0.448-8.266-0.095-11.895,2.106
			C887.247,777.269,885.399,782.387,884.417,787.443z"/>
		<path d="M881.649,706.722c5.163-3.904,9.558-3.018,14.148,0.263c4.319,5.378,6.25,12.282,8.813,19.169
			c4.214-1.197,8.241-2.472,12.338-3.452c2.291-0.549,4.724-0.956,7.049-0.798c2.634,0.181,4.854,1.587,5.966,4.213
			c0.656,1.556,1.25,3.141,1.881,4.741c-0.41,1.738-0.836,3.544-1.355,5.755c-1.99,1.59-4.235,3.385-6.213,4.968
			c-8.115-3.156-15.758-5.585-24.003-6.455c-5.326-0.563-10.624-1.061-15.917-0.77c-8.843,0.485-17.547,1.886-25.621,5.923
			c-5.193,2.595-11.426-0.908-11.953-6.852c-0.426-4.851,0.832-9.145,5.523-11.736l2.237-1.767
			c7.174-1.357,12.856,3.627,19.805,3.997c1.171-3.05,2.228-6.055,3.47-8.983C878.998,712.157,880.365,709.458,881.649,706.722z"/>
	</g>
	<g>
		<path d="M48.393,1480.662v-16.605h18.084v-133.32H48.393v-16.727h128.92v45.192h-19.657v-28.465H88.502v52.989h56.602v18.3H88.502
			v62.031h23.512v16.605H48.393z"/>
		<path d="M236.042,1464.057v16.605h-56.723v-16.605h15.594l47.336-133.32h-20.331v-16.727h75.931v16.727h-20.573l45.313,133.32
			h15.923v16.605h-59.196v-16.605h19.882l-13.105-39.66h-56.948l-13.208,39.66H236.042z M234.227,1407.791h47.681l-19.985-58.193
			c-0.086-0.294-0.225-0.787-0.467-1.469c-1.729-4.97-2.853-9.448-3.389-13.442c-0.449,2.334-0.951,4.616-1.521,6.838
			c-0.553,2.222-1.366,4.953-2.42,8.186L234.227,1407.791z"/>
		<path d="M405.261,1464.057h18.187v16.605h-58.297v-16.605h18.084v-133.32h-18.084v-16.727h71.297
			c19.121,0,33.246,3.389,42.374,10.174c9.111,6.777,13.658,17.28,13.658,31.517c0,9.189-2.23,16.856-6.708,22.994
			c-4.495,6.137-11.739,11.428-21.766,15.871c8.212,2.412,13.883,6.103,17.012,11.073s4.685,13.632,4.685,25.984v32.433h18.308
			v16.605h-40.23v-45.875c0-13.329-2.247-22.086-6.777-26.261c-4.512-4.184-12.845-6.276-24.964-6.276h-26.78V1464.057z
			 M405.261,1330.737v54.796h23.841c14.246,0,24.584-2.187,31.015-6.552c6.449-4.374,9.664-11.341,9.664-20.902
			c0-9.872-3.077-16.891-9.215-21.075c-6.137-4.184-16.631-6.267-31.465-6.267H405.261z"/>
		<path d="M577.091,1464.057h18.084v16.605h-57.398v-16.605h18.758v-133.32h-18.758v-16.727h53.663l42.599,117.613l43.722-117.613
			h50.499v16.727h-18.758v133.32h18.758v16.605h-57.398v-16.605h18.084v-128.92l-49.376,129.819h-13.105l-49.376-129.819V1464.057z"
			/>
		<path d="M763.84,1480.662v-16.605h18.066v-133.32H763.84v-16.727h128.902v45.192h-19.657v-28.465h-69.154v52.989h57.847v18.3
			h-57.847v62.031h69.154v-32.658h19.657v49.263H763.84z"/>
		<path d="M968.864,1464.057h18.205v16.605h-58.314v-16.605h18.084v-133.32h-18.084v-16.727h71.297
			c19.138,0,33.263,3.389,42.374,10.174c9.111,6.777,13.675,17.28,13.675,31.517c0,9.189-2.248,16.856-6.725,22.994
			c-4.495,6.137-11.739,11.428-21.749,15.871c8.212,2.412,13.865,6.103,16.995,11.073c3.129,4.97,4.685,13.632,4.685,25.984v32.433
			h18.308v16.605h-40.213v-45.875c0-13.329-2.265-22.086-6.777-26.261c-4.53-4.184-12.845-6.276-24.982-6.276h-26.78V1464.057z
			 M968.864,1330.737v54.796h23.841c14.246,0,24.584-2.187,31.015-6.552c6.449-4.374,9.664-11.341,9.664-20.902
			c0-9.872-3.077-16.891-9.215-21.075c-6.137-4.184-16.614-6.267-31.465-6.267H968.864z"/>
		<path d="M1132.239,1462.587v18.075h-18.758v-57.173h18.758c3.233,12.958,9.128,23.071,17.669,30.341
			c8.558,7.27,18.775,10.9,30.687,10.9c8.955,0,16.476-2.783,22.527-8.359c6.068-5.576,9.094-12.5,9.094-20.789
			c0-7.235-2.438-13.087-7.33-17.574c-4.91-4.478-13.07-8.264-24.515-11.35l-17.409-4.633c-16.562-4.521-28.63-10.451-36.15-17.798
			c-7.538-7.339-11.307-16.848-11.307-28.526c0-13.485,4.599-24.325,13.796-32.537c9.18-8.212,21.351-12.318,36.479-12.318
			c9.197,0,17.202,1.487,24.014,4.46c6.812,2.982,12.378,7.408,16.666,13.277v-14.574h16.165v47.906h-16.165
			c-2.853-10.39-7.918-18.378-15.197-23.953c-7.261-5.576-16.251-8.359-26.935-8.359c-8.523,0-15.473,2.282-20.85,6.838
			c-5.394,4.555-8.074,10.451-8.074,17.677c0,6.708,2.178,11.981,6.552,15.819c4.357,3.838,12.534,7.27,24.515,10.278l13.433,3.51
			c19.207,4.746,33.107,11.125,41.7,19.147c8.592,8.022,12.88,18.516,12.88,31.465c0,14.315-5.204,26.157-15.594,35.536
			c-10.39,9.379-23.581,14.064-39.539,14.064c-9.042,0-17.876-1.936-26.503-5.818S1137.357,1469.062,1132.239,1462.587z"/>
		<path d="M1436.239,1428.123c-4.287,17.625-12.776,31.335-25.483,41.129c-12.69,9.794-28.336,14.687-46.938,14.687
			c-24.636,0-44.915-8.151-60.838-24.463c-15.94-16.303-23.893-36.997-23.893-62.083c0-24.783,7.884-45.399,23.668-61.858
			c15.784-16.458,35.597-24.688,59.49-24.688c10.615,0,20.227,1.599,28.854,4.806c8.627,3.198,15.732,7.849,21.299,13.952v-15.594
			h18.084v51.632h-17.167c-3.769-11.825-9.785-20.677-18.032-26.546c-8.247-5.878-18.81-8.817-31.69-8.817
			c-18.758,0-33.747,6.103-44.967,18.308c-11.22,12.197-16.839,28.465-16.839,48.805c0,19.89,5.844,36.046,17.513,48.468
			c11.687,12.43,26.814,18.646,45.417,18.646c12.43,0,22.855-3.008,31.24-9.042c8.402-6.025,14.972-15.136,19.726-27.342H1436.239z"
			/>
		<path d="M1474.844,1480.662v-16.605h18.084v-133.32h-18.084v-16.727h128.92v45.192h-19.657v-28.465h-69.154v52.989h57.847v18.3
			h-57.847v62.031h69.154v-32.658h19.657v49.263H1474.844z"/>
		<path d="M1680.351,1464.057h18.187v16.605h-57.519v-16.605h18.654v-133.32h-18.654v-16.727h41.579l70.399,121.347v-104.621
			h-18.308v-16.727h57.622v16.727h-18.758v153.201h-16.614l-76.588-131.513V1464.057z"/>
		<path d="M1901.09,1464.057h18.308v16.605h-58.521v-16.605h18.291v-133.32h-31.742v29.823h-18.758v-46.549h122.938v46.549h-18.983
			v-29.823h-31.534V1464.057z"/>
	</g>
</g>
</svg>
